<svg xmlns="http://www.w3.org/2000/svg" width="1600" height="600" viewBox="0 0 1600 600" role="img" aria-labelledby="title desc">
  <title id="title">ReproCut — Same failure. Less project.</title>
  <desc id="desc">An evidence-bound ReproCut alpha banner showing a stable failure diagnosed, an eighteen-file project reduced to three files, and a strict three-of-three verification.</desc>
  <defs>
    <linearGradient id="backdrop" x1="0" y1="0" x2="1" y2="1">
      <stop offset="0" stop-color="#050814"/>
      <stop offset="0.52" stop-color="#0b1024"/>
      <stop offset="1" stop-color="#160d2f"/>
    </linearGradient>
    <linearGradient id="violet" x1="0" y1="0" x2="1" y2="1">
      <stop offset="0" stop-color="#6ea8ff"/>
      <stop offset="0.52" stop-color="#7955ff"/>
      <stop offset="1" stop-color="#ff8b6b"/>
    </linearGradient>
    <linearGradient id="panel" x1="0" y1="0" x2="0" y2="1">
      <stop offset="0" stop-color="#151b37" stop-opacity="0.94"/>
      <stop offset="1" stop-color="#090d1d" stop-opacity="0.94"/>
    </linearGradient>
    <pattern id="grid" width="48" height="48" patternUnits="userSpaceOnUse">
      <path d="M48 0H0V48" fill="none" stroke="#7890d8" stroke-opacity="0.09"/>
    </pattern>
    <style>
      .sans { font-family: Inter, "Segoe UI", Arial, sans-serif; }
      .mono { font-family: "Cascadia Mono", Consolas, monospace; }
      .micro { font-size: 15px; font-weight: 700; letter-spacing: 2px; }
      .card { fill: #121831; stroke: #5665a5; stroke-width: 1.5; }
      .cut { fill: #0b1022; stroke: #342e59; stroke-width: 1.5; opacity: .55; }
    </style>
  </defs>
  <rect width="1600" height="600" fill="url(#backdrop)"/>
  <rect width="1600" height="600" fill="url(#grid)"/>
  <circle cx="1260" cy="178" r="260" fill="#6847ff" opacity="0.08"/>
  <circle cx="1050" cy="520" r="260" fill="#ff754f" opacity="0.05"/>
  <rect x="24" y="24" width="1552" height="552" rx="28" fill="none" stroke="#35406b" stroke-width="2"/>
  <g class="sans">
    <text x="82" y="88" class="mono micro" fill="#9aa7d2">OPEN SOURCE FAILURE REDUCTION</text>
    <text x="82" y="184" font-size="92" font-weight="800" letter-spacing="-5" fill="#f8f9ff">repro</text>
    <text x="318" y="184" font-size="92" font-weight="800" letter-spacing="-5" fill="url(#violet)">cut</text>
    <rect x="82" y="208" width="176" height="36" rx="18" fill="#11172f" stroke="#6d63d9"/>
    <text x="102" y="232" class="mono" font-size="15" font-weight="700" fill="#c8c7ff">0.1.0-alpha.1</text>
    <text x="82" y="319" font-size="53" font-weight="750" letter-spacing="-1.8" fill="#f8f9ff">Same failure.</text>
    <text x="82" y="378" font-size="53" font-weight="750" letter-spacing="-1.8" fill="#b39cff">Less project.</text>
    <text x="84" y="426" font-size="22" fill="#a7b0ce">Turn a failing repository into the smallest useful reproduction</text>
    <text x="84" y="458" font-size="22" fill="#a7b0ce">you can hand to another engineer — with evidence.</text>
    <text x="84" y="520" class="mono micro" fill="#d8d9ec">Diagnose</text>
    <text x="223" y="520" class="mono" font-size="20" fill="#7e88ad">→</text>
    <text x="264" y="520" class="mono micro" fill="#d8d9ec">Reduce</text>
    <text x="382" y="520" class="mono" font-size="20" fill="#7e88ad">→</text>
    <text x="423" y="520" class="mono micro" fill="#d8d9ec">Verify</text>
  </g>
  <g transform="translate(680 68)">
    <rect width="816" height="464" rx="24" fill="url(#panel)" stroke="#394471" stroke-width="2"/>
    <text x="34" y="42" class="mono micro" fill="#9aa7d2">LIVE REDUCTION RECORD</text>
    <text x="637" y="42" class="mono" font-size="14" font-weight="700" fill="#a993ff">RC / 0.1</text>
    <path d="M34 62H782" stroke="#333b61"/>
    <g transform="translate(34 88)">
      <rect width="214" height="52" rx="10" fill="#131a35" stroke="#5866a0"/>
      <circle cx="25" cy="26" r="7" fill="#84f1c6"/>
      <text x="44" y="23" class="mono" font-size="12" fill="#8f9abf">DOCTOR</text>
      <text x="44" y="39" class="mono" font-size="14" font-weight="700" fill="#eef1ff">stable failure found</text>
    </g>
    <g transform="translate(266 88)">
      <rect width="214" height="52" rx="10" fill="#131a35" stroke="#745dd6"/>
      <text x="20" y="23" class="mono" font-size="12" fill="#8f9abf">PROJECT</text>
      <text x="20" y="40" class="mono" font-size="16" font-weight="700" fill="#eef1ff">18 → 03 files</text>
    </g>
    <g transform="translate(498 88)">
      <rect width="284" height="52" rx="10" fill="#151932" stroke="#ff866c"/>
      <text x="20" y="23" class="mono" font-size="12" fill="#8f9abf">FINAL VERIFICATION</text>
      <text x="20" y="40" class="mono" font-size="16" font-weight="700" fill="#ffb29f">STRICT 3 / 3</text>
    </g>
    <text x="36" y="184" class="mono" font-size="13" fill="#7884aa">PROJECT MATERIAL / 18 FILES</text>
    <text x="646" y="184" class="mono" font-size="13" font-weight="700" fill="#ff967d">15 CUT</text>
    <g transform="translate(36 202)">
      <g data-file-state="retained" transform="translate(0 0)"><rect width="106" height="48" rx="8" class="card"/><path d="M14 16H89M14 28H70" stroke="#8a7cff" stroke-width="2"/><circle cx="91" cy="34" r="4" fill="#84f1c6"/></g>
      <g data-file-state="retained" transform="translate(126 0)"><rect width="106" height="48" rx="8" class="card"/><path d="M14 16H89M14 28H70" stroke="#8a7cff" stroke-width="2"/><circle cx="91" cy="34" r="4" fill="#84f1c6"/></g>
      <g data-file-state="retained" transform="translate(252 0)"><rect width="106" height="48" rx="8" class="card"/><path d="M14 16H89M14 28H70" stroke="#8a7cff" stroke-width="2"/><circle cx="91" cy="34" r="4" fill="#84f1c6"/></g>
      <g data-file-state="rejected" transform="translate(378 0)"><rect width="106" height="48" rx="8" class="cut"/><path d="M14 16H89M14 28H70" stroke="#465071"/><path d="M16 10L90 38" stroke="#ff8067"/></g>
      <g data-file-state="rejected" transform="translate(504 0)"><rect width="106" height="48" rx="8" class="cut"/><path d="M14 16H89M14 28H70" stroke="#465071"/><path d="M16 10L90 38" stroke="#ff8067"/></g>
      <g data-file-state="rejected" transform="translate(630 0)"><rect width="106" height="48" rx="8" class="cut"/><path d="M14 16H89M14 28H70" stroke="#465071"/><path d="M16 10L90 38" stroke="#ff8067"/></g>
      <g data-file-state="rejected" transform="translate(0 66)"><rect width="106" height="48" rx="8" class="cut"/><path d="M14 16H89M14 28H70" stroke="#465071"/><path d="M16 10L90 38" stroke="#ff8067"/></g>
      <g data-file-state="rejected" transform="translate(126 66)"><rect width="106" height="48" rx="8" class="cut"/><path d="M14 16H89M14 28H70" stroke="#465071"/><path d="M16 10L90 38" stroke="#ff8067"/></g>
      <g data-file-state="rejected" transform="translate(252 66)"><rect width="106" height="48" rx="8" class="cut"/><path d="M14 16H89M14 28H70" stroke="#465071"/><path d="M16 10L90 38" stroke="#ff8067"/></g>
      <g data-file-state="rejected" transform="translate(378 66)"><rect width="106" height="48" rx="8" class="cut"/><path d="M14 16H89M14 28H70" stroke="#465071"/><path d="M16 10L90 38" stroke="#ff8067"/></g>
      <g data-file-state="rejected" transform="translate(504 66)"><rect width="106" height="48" rx="8" class="cut"/><path d="M14 16H89M14 28H70" stroke="#465071"/><path d="M16 10L90 38" stroke="#ff8067"/></g>
      <g data-file-state="rejected" transform="translate(630 66)"><rect width="106" height="48" rx="8" class="cut"/><path d="M14 16H89M14 28H70" stroke="#465071"/><path d="M16 10L90 38" stroke="#ff8067"/></g>
      <g data-file-state="rejected" transform="translate(0 132)"><rect width="106" height="48" rx="8" class="cut"/><path d="M14 16H89M14 28H70" stroke="#465071"/><path d="M16 10L90 38" stroke="#ff8067"/></g>
      <g data-file-state="rejected" transform="translate(126 132)"><rect width="106" height="48" rx="8" class="cut"/><path d="M14 16H89M14 28H70" stroke="#465071"/><path d="M16 10L90 38" stroke="#ff8067"/></g>
      <g data-file-state="rejected" transform="translate(252 132)"><rect width="106" height="48" rx="8" class="cut"/><path d="M14 16H89M14 28H70" stroke="#465071"/><path d="M16 10L90 38" stroke="#ff8067"/></g>
      <g data-file-state="rejected" transform="translate(378 132)"><rect width="106" height="48" rx="8" class="cut"/><path d="M14 16H89M14 28H70" stroke="#465071"/><path d="M16 10L90 38" stroke="#ff8067"/></g>
      <g data-file-state="rejected" transform="translate(504 132)"><rect width="106" height="48" rx="8" class="cut"/><path d="M14 16H89M14 28H70" stroke="#465071"/><path d="M16 10L90 38" stroke="#ff8067"/></g>
      <g data-file-state="rejected" transform="translate(630 132)"><rect width="106" height="48" rx="8" class="cut"/><path d="M14 16H89M14 28H70" stroke="#465071"/><path d="M16 10L90 38" stroke="#ff8067"/></g>
    </g>
    <path data-role="cut-trace" d="M414 192C414 176 442 176 442 192V385C442 407 476 407 476 385" fill="none" stroke="url(#violet)" stroke-width="3"/>
    <path d="M34 406H782" stroke="#333b61"/>
    <text x="36" y="437" class="mono" font-size="13" fill="#909bbb">24 CANDIDATES</text>
    <text x="190" y="437" class="mono" font-size="13" fill="#909bbb">bug.py · checkout.py · fixtures/order.json</text>
    <text x="575" y="437" class="mono" font-size="13" font-weight="700" fill="#84f1c6">SAME FAILURE</text>
    <text x="36" y="456" class="mono" font-size="12" fill="#6e789b">sha256:ede93e201979aa28…</text>
  </g>
</svg>
